/* XPM */
static char *_d9f6ba79cd149dbd4750f68639a8ba6[] = {
/* columns rows colors chars-per-pixel */
"16 16 160 2 ",
"   c #151614",
".  c #161716",
"X  c #161816",
"o  c #171816",
"O  c #171817",
"+  c #1B1B19",
"@  c #1E1B1A",
"#  c #181C18",
"$  c #1C1D1C",
"%  c #1E1F1D",
"&  c #1E1F24",
"*  c #251D26",
"=  c #1D2625",
"-  c #30312F",
";  c #2F3130",
":  c #333130",
">  c #333431",
",  c #353135",
"<  c #363036",
"1  c #343534",
"2  c #343F3E",
"3  c #484949",
"4  c #484A49",
"5  c #514F4F",
"6  c #584F59",
"7  c #4E5254",
"8  c #505150",
"9  c #505251",
"0  c #515257",
"q  c #7B7E7E",
"w  c #7E7C7E",
"e  c #FDB36C",
"r  c #FBFB76",
"t  c #FFFF7D",
"y  c #878685",
"u  c #878788",
"i  c #8C868D",
"p  c #878888",
"a  c #85898B",
"s  c #87888A",
"d  c #979A9A",
"f  c #99999A",
"g  c #A99393",
"h  c #86A183",
"j  c #A6A792",
"k  c #A69DA8",
"l  c #9CA0A2",
"z  c #A0A2A2",
"x  c #A1A2A2",
"c  c #A2A2A2",
"v  c #A2A3A3",
"b  c #A2A3A4",
"n  c #A3A4A4",
"m  c #A7A8AA",
"M  c #A7B3B3",
"N  c #CD9899",
"B  c #F69B9E",
"V  c #FFBF83",
"C  c #FFB0B4",
"Z  c #F9BDBB",
"A  c #A9C5A7",
"S  c #AFF9A5",
"D  c #FCC895",
"F  c #FFFF88",
"G  c #F9CDA6",
"H  c #FFD9A3",
"J  c #C1FFB8",
"K  c #FCFBA7",
"L  c #FCFCA5",
"P  c #FFFFA4",
"I  c #9597FF",
"U  c #B6AFF7",
"Y  c #B6B2FB",
"T  c #B4B3FF",
"R  c #BFBCFD",
"E  c #FCBEC0",
"W  c #C0B8FE",
"Q  c #F0A3F0",
"!  c #FAA0FE",
"~  c #F8A2FE",
"^  c #FFA2FE",
"/  c #FBA5FC",
"(  c #FBA7FD",
")  c #FFAEFF",
"_  c #9DFCFE",
"`  c #A3FFFF",
"'  c #AFFDFF",
"]  c #B8FBFC",
"[  c #BCFFFE",
"{  c #C4C5C3",
"}  c #CBCBCA",
"|  c #CFCFD5",
" . c #CBCBDC",
".. c #CCCCDC",
"X. c #FFCCC4",
"o. c #FFC8C8",
"O. c #FBCDD0",
"+. c #FFDDD8",
"@. c #FCDDDF",
"#. c #C9FBC5",
"$. c #C9FAC7",
"%. c #CFFBCA",
"&. c #D0FFCE",
"*. c #FFEAC8",
"=. c #FFFFCF",
"-. c #EBECDC",
";. c #FBE5D0",
":. c #F9EADA",
">. c #E2FFDC",
",. c #FEFDDA",
"<. c #C1C5FF",
"1. c #C9C9FF",
"2. c #C8CDFF",
"3. c #CFCFFF",
"4. c #D4D4FF",
"5. c #FEC2FD",
"6. c #FFC8FF",
"7. c #FEC9FF",
"8. c #C4FFFE",
"9. c #CBFFFC",
"0. c #D6F5FE",
"q. c #D5FEFE",
"w. c #EDFFEA",
"e. c #FFF6E2",
"r. c #FCFCE5",
"t. c #FFFFE6",
"y. c #E0E2FD",
"u. c #ECE4FF",
"i. c #ECEBFA",
"p. c #E8EAFF",
"a. c #E9EAFF",
"s. c #F2E2FB",
"d. c #F8E6FE",
"f. c #F1E8FF",
"g. c #F8EEF8",
"h. c #FFE8FF",
"j. c #E3FCFB",
"k. c #EBFFFF",
"l. c #EEFFFE",
"z. c #F6F7F7",
"x. c #FCF0F2",
"c. c #FFF7F1",
"v. c #FCF6F7",
"b. c #FFF9F0",
"n. c #FFFFF6",
"m. c #F7F6F8",
"M. c #FFF3FF",
"N. c #FBFBFB",
"B. c #FEF8F9",
"V. c #F8FFF9",
"C. c #FFFFFA",
"Z. c #FAFBFC",
"A. c #FBFFFF",
"S. c #FDFDFD",
"D. c #FFFFFC",
"F. c #FFFFFD",
"G. c #FCFFFE",
"H. c #FEFEFE",
"J. c gray100",
"K. c None",
/* pixels */
"K.K.K.K.K.K.K.O O K.K.K.K.K.K.K.",
"K.K.K.K.= 8 u n x p 8 % K.K.K.K.",
"K.K.K.: g v.J.J.J.J.Z.m > K.K.K.",
"K.K.2 N C +.2.i.C.4.| =. .1 K.K.",
"K.@ M o.B X.U p.J.3.} t n.j & K.",
"K.5 A.E O.b.Y p.C.1...F L r.0 K.",
"K.y J.Z @.J.R T y.I -.L r J.p K.",
"O x J.x.B.J.J.<.W u.r.,.K J.b O ",
"O x J.$.V.h.^ f.8.' q.c.N.J.x   ",
"K.i w.S J./ 7.! l._ k.V ;.*.p K.",
"K.6 $.&.M./ J.) d.[ J.D e :.7 K.",
"K.* h J %.Q 6.~ 0.` J.G H l % K.",
"K.K., A >.g.5.s.9.] j.e.{ : K.K.",
"K.K.K., k m.J.J.J.J.m.l ; K.K.K.",
"K.K.K.K.# 4 w f d q 4 + K.K.K.K.",
"K.K.K.K.K.K.K.    K.K.K.K.K.K.K."
};
