/* XPM */
static char *_e9a74d85149456ad0bd130a53c28cdc[] = {
/* columns rows colors chars-per-pixel */
"64 64 255 2 ",
"   c #1E1F1E",
".  c #1F201E",
"X  c #20211F",
"o  c #232423",
"O  c #272826",
"+  c #282927",
"@  c #2D2E2D",
"#  c #2F302F",
"$  c #313231",
"%  c #373836",
"&  c #383937",
"*  c #3B3C3B",
"=  c #424443",
"-  c #4C4D4B",
";  c #504E4D",
":  c #545553",
">  c #505857",
",  c #5B5C5A",
"<  c #676767",
"1  c #676867",
"2  c #686867",
"3  c #6D6E6C",
"4  c #6F706F",
"5  c #737373",
"6  c #777877",
"7  c #787877",
"8  c #7A7A7A",
"9  c #FA0204",
"0  c #FB060B",
"q  c #FB090E",
"w  c #FB0B10",
"e  c #F72C30",
"r  c #FB2E32",
"t  c #FB3035",
"y  c #FB3438",
"u  c #FC7400",
"i  c #FC7900",
"p  c #FD7F0B",
"a  c #FC4246",
"s  c #FF474B",
"d  c #FC595C",
"f  c #FC6366",
"g  c #FD6F72",
"h  c #FC7275",
"j  c #FC7679",
"k  c green",
"l  c #19FE01",
"z  c #1EFE0B",
"x  c #22FF0F",
"c  c #2AFF13",
"v  c #2EFE1C",
"b  c #34FF1C",
"n  c #37FF25",
"m  c #3FFE2E",
"M  c #42FE2B",
"N  c #45FE31",
"B  c #4AFE34",
"V  c #5AFE46",
"C  c #5FFF4C",
"Z  c #67F959",
"A  c #6CFF5E",
"S  c #77FD66",
"D  c #78FE66",
"F  c #78FC6A",
"G  c #FD8313",
"H  c #FD8B1E",
"J  c #FD8D24",
"K  c #FD912C",
"L  c #FD9634",
"P  c #FD9A3B",
"I  c #FFFF01",
"U  c #FFFF0B",
"Y  c #FFFF12",
"T  c #FFFF19",
"R  c #FFFF27",
"E  c #FFFF2B",
"W  c #FFFF34",
"Q  c #FFFF3E",
"!  c #FD9C42",
"~  c #FDA24B",
"^  c #FDA857",
"/  c #FCA95A",
"(  c #FDAC60",
")  c #FDB36D",
"_  c #FCB674",
"`  c #FDB876",
"'  c #FDBA79",
"]  c #84FE75",
"[  c #87FE78",
"{  c #8DFF7F",
"}  c #FFFF45",
"|  c #FFFF4A",
" . c #FFFF55",
".. c #FFFF5E",
"X. c #FFFF68",
"o. c #FFFF75",
"O. c #FEFE78",
"+. c #0101FF",
"@. c #0C0CFF",
"#. c #1515FF",
"$. c #1B1BFF",
"%. c #2626FF",
"&. c #2E2EFF",
"*. c #3333FF",
"=. c #3B3BFF",
"-. c #4343FF",
";. c #4949FF",
":. c #5555FF",
">. c #5F5FFF",
",. c #7171FF",
"<. c #FA01FF",
"1. c #FB0CFF",
"2. c #FB13FF",
"3. c #FB1FFF",
"4. c #FB23FF",
"5. c #FB2CFF",
"6. c #FB33FF",
"7. c #FB3EFF",
"8. c #FC44FF",
"9. c #FC52FF",
"0. c #FC5CFF",
"q. c #FC61FF",
"w. c #FC68FF",
"e. c #FC71FF",
"r. c #FC7AFF",
"t. c #13FFFF",
"y. c #1AFFFF",
"u. c #24FFFF",
"i. c #2AFFFF",
"p. c #31FFFF",
"a. c #3FFEFE",
"s. c #43FFFF",
"d. c #4CFFFF",
"f. c #6CFEFF",
"g. c #75FFFF",
"h. c #838483",
"j. c #8C8D8C",
"k. c #949494",
"l. c #A3A4A3",
"z. c #A9A7A7",
"x. c #ABACAB",
"c. c #B2B3B3",
"v. c #B7BAB7",
"b. c #BCBDBC",
"n. c #FD8C8E",
"m. c #FEBF84",
"M. c #FDAAAC",
"N. c #FDAFB1",
"B. c #F3B1B3",
"V. c #F8B5B7",
"C. c #FAB6B8",
"Z. c #FDBABB",
"A. c #97FC8D",
"S. c #9DFF90",
"D. c #B3FEAA",
"F. c #FEC085",
"G. c #FCC695",
"H. c #FEC896",
"J. c #FECB9D",
"K. c #FEFE85",
"L. c #FFFF8D",
"P. c #FAFB92",
"I. c #FFFF9D",
"U. c #FECFA2",
"Y. c #FDD3AA",
"T. c #FBDBBC",
"R. c #FFFFA5",
"E. c #FCFCA8",
"W. c #FFFFBB",
"Q. c #8585FF",
"!. c #8989FF",
"~. c #9090FF",
"^. c #9C9CFF",
"/. c #A5A5FF",
"(. c #B0B0FF",
"). c #BDBDFF",
"_. c #FD8CFF",
"`. c #FD9CFE",
"'. c #FFACFF",
"]. c #FDBBFE",
"[. c #80FFFF",
"{. c #A4FFFF",
"}. c #A9FFFF",
"|. c #BCFEFF",
" X c #C3C3C3",
".X c #CBCCCB",
"XX c #D0CFCF",
"oX c #CDD0CE",
"OX c #D4D5D5",
"+X c #DCDCDC",
"@X c #E7C6C8",
"#X c #FEC3C3",
"$X c #FED5D5",
"%X c #FBD4D8",
"&X c #FEDADB",
"*X c #CCF4C7",
"=X c #CAFFC4",
"-X c #D0FFCB",
";X c #D4E0DF",
":X c #DCF6D8",
">X c #FEE2C6",
",X c #FEE3C9",
"<X c #F6F7C4",
"1X c #FEFEC3",
"2X c #FFFFCF",
"3X c #FAE6D4",
"4X c #FDE9D5",
"5X c #F2E6DA",
"6X c #E1FFDC",
"7X c #FFFFD6",
"8X c #F3F4DA",
"9X c #FFFFDA",
"0X c #CCCCFF",
"qX c #D4D4FF",
"wX c #DCDCFF",
"eX c #FEC3FF",
"rX c #FDCCFF",
"tX c #FED3FF",
"yX c #FEDBFF",
"uX c #C2FFFF",
"iX c #CCFFFF",
"pX c #D3FFFF",
"aX c #DBFFFF",
"sX c #E5E6E6",
"dX c #E8E5E5",
"fX c #E7E7E8",
"gX c #E7E8E8",
"hX c #EAEBEB",
"jX c #FDE3E5",
"kX c #FAEEE2",
"lX c #F1EFEF",
"zX c #FEEBEB",
"xX c #E5FDE2",
"cX c #E9FFE7",
"vX c #EEF2EE",
"bX c #EDFFEB",
"nX c #FEF1E5",
"mX c #FFFFE2",
"MX c #FDF5EC",
"NX c #FDFDED",
"BX c #ECECFF",
"VX c #FEE4FF",
"CX c #FEEDFF",
"ZX c #EFF2F0",
"AX c LightCyan",
"SX c #EBFEFE",
"DX c #F3F4F5",
"FX c #FDF3F2",
"GX c #F5F9F5",
"HX c #FCFDF4",
"JX c #F4F5FD",
"KX c #FEF4FF",
"LX c #F4FCFD",
"PX c #FEFEFE",
"IX c None",
/* pixels */
"IXIXIXIXIXIXIXIXIXIXIXIXIXIXIXIXIXIXIXIXIXIXIXIXIXIXIXIXIXIXIXIXIXIXIXIXIXIXIXIXIXIXIXIXIXIXIXIXIXIXIXIXIXIXIXIXIXIXIXIXIXIXIXIX",
"IXIXIXIXIXIXIXIXIXIXIXIXIXIXIXIXIXIXIXIXIXIXIXIXIXIXIXIXIXIXIXIXIXIXIXIXIXIXIXIXIXIXIXIXIXIXIXIXIXIXIXIXIXIXIXIXIXIXIXIXIXIXIXIX",
"IXIXIXIXIXIXIXIXIXIXIXIXIXIXIXIXIXIXIXIXIXIXIXIXIX@ @ @ @ @ @ @ @ @ @ # @ @ @ IXIXIXIXIXIXIXIXIXIXIXIXIXIXIXIXIXIXIXIXIXIXIXIXIX",
"IXIXIXIXIXIXIXIXIXIXIXIXIXIXIXIXIXIXIXIXIXIX@ # @ @ # $ $ $ $ $ $ $ $ $ $ # # @ @ @ IXIXIXIXIXIXIXIXIXIXIXIXIXIXIXIXIXIXIXIXIXIX",
"IXIXIXIXIXIXIXIXIXIXIXIXIXIXIXIXIXIXIX# @ @ @ # $ $ O o X   o X       o o + # $ $ # @ @ @ IXIXIXIXIXIXIXIXIXIXIXIXIXIXIXIXIXIXIX",
"IXIXIXIXIXIXIXIXIXIXIXIXIXIXIXIXIX@ @ @ # $ # o   o = , 8 j.k.k.k.k.j.8 , = o   o # $ # @ @ @ IXIXIXIXIXIXIXIXIXIXIXIXIXIXIXIXIX",
"IXIXIXIXIXIXIXIXIXIXIXIXIXIXIXIX@ @ # # @   + , k..XhXPXPXPXPXPXPXPXPXPXPXhX.Xk.: +   @ $ # @ @ IXIXIXIXIXIXIXIXIXIXIXIXIXIXIXIX",
"IXIXIXIXIXIXIXIXIXIXIXIXIXIX@ @ @ # @   % h.OXPXPXPXLXDXDXLXDXDXDXDXlXDXDXLXPXPXPXOXh.%   @ $ @ @ @ IXIXIXIXIXIXIXIXIXIXIXIXIXIX",
"IXIXIXIXIXIXIXIXIXIXIXIXIX@ @ $ # X % j.gXPXPXDXDXDXPXPXPXPXPXPXPXPXPXPXLXDXDXlXDXPXPXdXj.% o $ # @ # IXIXIXIXIXIXIXIXIXIXIXIXIX",
"IXIXIXIXIXIXIXIXIXIXIXIX@ @ $ @   3 +XPXLXDXDXGXPXPXPXPXPXPXPXPXPXPXPXPXPXPXPXPXLXDXDXLXPX+X3   @ $ @ @ IXIXIXIXIXIXIXIXIXIXIXIX",
"IXIXIXIXIXIXIXIXIXIXIX@ @ $ o @ z.PXPXDXPXPXPXPXPXPXPXPXPXPXPXPXPXPXPXPXPXPXPXLXGXGXGXFXZXGXPXx.@ o $ @ @ IXIXIXIXIXIXIXIXIXIXIX",
"IXIXIXIXIXIXIXIXIXIX@ @ $ o = ;XPXLXPXPXPXPXPXPXPXPXPXPXPXPXPXPXPXPXPXPXPXPXPXPXPXKXPXPXPXDXDXPXOX= o $ @ @ IXIXIXIXIXIXIXIXIXIX",
"IXIXIXIXIXIXIXIXIX@ @ $ X > @Xs e r a n.&XPXPXPXPXPXJXPXPXPXPXPXPXPXPXPXPXPXPX/.,.PXPX<XE.PXJXlXPXdX: o $ # # IXIXIXIXIXIXIXIXIX",
"IXIXIXIXIXIXIXIX@ @ $ o ; SXZ.9 g g t 9 9 w M.PXPXPX;.Q.PXPXPXPXPXPXPXPXPXPXPX,.&.PXPXO.U LXPXFXDXLXhX; o $ @ @ IXIXIXIXIXIXIXIX",
"IXIXIXIXIXIXIX@ @ $ O = dXLXB.q FXPXPXzXZ.h #XPXPXPX&.,.PXPXPXPXPXPXPXPXPXPXPX,.*.HXPXK.I NXPXGXLXDXPXgX= o $ @ @ IXIXIXIXIXIXIX",
"IXIXIXIXIXIX@ @ # @ # OXPXLXV.0 zXPXPXPXPXPXPXPXPXPX&.,.PXPXPXPXPXPXPXPXPXPXPX,.&.PXPXK.I 1XPXPXPXLXlXPXOX@ @ $ @ @ IXIXIXIXIXIX",
"IXIXIXIXIXIX@ @ #   x.PXlXLXV.0 FXPXPXPXFXFXPXPXKXPX&.,.PXPXPXPXPXPXPXPXPXPXPX,.&.PXPXK.I ..PXPXPXPXDXJXPXx.o $ @ @ IXIXIXIXIXIX",
"IXIXIXIXIX@ @ $ o 4 PXlXDXPXZ.0 jXFXFXPXPXPXPXPXPXPX&.,.PXLXPXPXPXPXPXPXPXPXPX,.&.LXPXK.I T 9XPXPXPXHXP.8XPX3 . $ @ @ IXIXIXIXIX",
"IXIXIXIXIX@ # @ $ +XPXDXPXPX#X9 q 0 0 r t r f j jXPX&.,.PXPXPXPXPXPXPXPXPXPXPX,.&.PXPXO.W R ..PXPXPX1XI <XLX+X$ @ @ @ IXIXIXIXIX",
"IXIXIXIX@ @ $ . k.PXlXLXDXPXZ.9 N.#XM.g j f r r %XPX&.,.PXPXPXPXPXPXPXPXPXJXPX,.&.HXPXo.} L.I NXPXPXW.Y MXDXPXk.. $ @ @ IXIXIXIX",
"IXIXIXIX@ @ @ & gXLXDXFXFXPXZ.0 FXPXPXPXPXPXPXPXPXPX&.,.PXPXPXPXPXPXPXPXPXPXPX,.&.PXPXo.Q NXI I.PXPXI.I MXLXDXgX& + @ @ IXIXIXIX",
"IXIXIXIX@ $ X h.PXDXLXPXPXPXZ.0 zXPXHXPXPXPXPXPXPXPX&.,.PXPXPXPXPXPXPXPXPXPXPX,.&.PXPXo.W PX} } PXPXO.E PXLXDXPXh.. $ @ IXIXIXIX",
"IXIXIX# @ @ @ OXPXDXFXLXPXPXZ.0 FXPXPXPXPXPXPXPXPXPX&.,.PXPXPXPXPXPXPXPXPXLXPX-.-.HXPXO.W PXI.U mXPXO.W PXDXGXPXOX@ # # @ IXIXIX",
"IXIXIX# # o , LXDXDXPXPXPXPXZ.0 FXPXPXPXPXPXPXPXPXPX&.,.PXJXPXPXPXPXPXPXPXPXKX@.!.LXPXO.W PXmXI R.PXo.W PXPXGXJXLX, o $ @ IXIXIX",
"IXIXIX@ #   k.PXDXLXPXPXPXPXZ.0 FXPXPXPXPXPXPXPXPXPX*.:.PXPXPXPXPXPXPXPXPXPX0X+.qXPXPXO.R PXPXE  .PXo.W PXPXKXDXPXk.  # # IXIXIX",
"IXIX@ # # O .XPXDXPXPXPXPXPXZ.0 FXPXPXPXPXPXPXPXPXPX!.+.qXPXPXPXPXPXPXPXPXPX>.+.JXPXPXI.U NXPXK.U PXo.W PXPXPXGXPX.XO # # @ IXIX",
"IXIX@ # + = hXLXDXPXPXPXPXPXZ.w FXPXPXPXPXPXPXPXPXPXJX%.=.PXPXPXPXPXPXPXJX>.+.^.PXPXPXW.U NXPX9XI R.|  .PXPXPXDXLXhX= + # @ IXIX",
"IXIX@ $ o , PXDXLXPXPXPXPXPXZ.9 FXPXPXPXPXPXPXPXPXPXPX(.+.&.wXPXBX).).!.$.+.^.PXPXPXPXW.U HXPXPX..U T K.PXHXPXGXDXPX, o $ @ IXIX",
"IXIX@ $ o 7 PXDXFXPXPXPXPXPX$Xd FXPXPXPXPXPXPXPXPXPXPXPX0X%.+.#.+.+.+.+.:.wXPXPXPXPXPXW.Y HXPXPX7XU I W.PXHXPXPXDXPX6 o $ @ IXIX",
"IXIX@ $   j.PXDXLXPXPXPXPXPXPXPXPXPXPXPXPXPXPXPXPXPXPXPXPXPX~.,./.wXJXJXPXPXPXPXPXPXPXW.I NXPXPXPXX.I 1XPXPXPXLXDXPXj.  $ @ IXIX",
"IXIX@ $   k.PXDXLXPXPXPXPXPXPXPXPXPXPXPXPXPXPXPXPXPXPXPXPXPXPXPXPXPXPXPXPXPXPXPXPXPXPX7X..PXPXPXPX9XI W.PXPXPXPXDXPXk.  $ @ IXIX",
"IXIX@ $   k.PXDXFXPXPXPXPXPXPXPXPXPXPXPXPXPXPXPXPXPXPXPXPXPXPXLXPXLXPXPXLXPXPXPXPXPXPXPXPXPXPXPXPXPX2XHXPXPXPXLXDXPXk.X $ @ IXIX",
"IXIX@ $   k.PXDXLXPXPXPXPXPXPXLXPXPXPXPXPXPXPXPXPXPXPXPXPXPXPXPXPXPXPXPXPXPXPXPXPXPXLXPXPXPXPXPXPXPXPXPXPXPXPXPXDXPXk.  $ @ IXIX",
"IXIX@ $   k.PXDXPXPXPXPXPXPXPXPXPXPXPXPXPXPXPXPXPXKXKXPXPXPXPXiXuXuXaXLXPXaXSXPXPXPXPXPXPXPXPXPXPXPXPXPXPXPXPXPXDXPXk.  $ @ IXIX",
"IXIX@ $   j.PXDXGXPXPXPXPX-XB C PXPXPXPXPXPXPXKXe.<.<.7.tXPXLXs.y.u.y.y.s.u.f.AXuX|.iXPXPXPXPXPXPXPXPXPXPXPXPXPXDXPXj.. $ @ IXIX",
"IXIX@ $ . 5 PXDXDXPXPXPX6Xx n S.PXPXPXPXPXPXKX6.<.r.`.4.1.yXPXLXLXLXiX}.g.i.y.t.y.u.s.LXPXY.Y.PXPXPXPXPXPXPXPXPXDXPX5 X $ @ IXIX",
"IXIX@ $ o : LXFXPXPXGXPXA z bXPXPXPXPXPXPXPX9.<.rXPXPXCX1.0.PXPXPXPXPXPXPXd.g.pXaXLXLXPXPXL J PXPXPXPXPXPXY.,XPXDXLX: o $ @ IXIX",
"IXIX@ @ @ & dXLXDXPXPXcXl { PXHXPXPXPXPXPXVX<.`.PXPXKXPX`.<.rXPXPXPXPXLXPXs.[.PXPXPXPXPXPX~ u U.PXPXPXPXPXG ` LXFXgX& @ @ @ IXIX",
"IXIX@ # # o  XPXDXLXPXD.l cXPXPXPXPXPXPXPX`.<.VXPXPXPXPXPX3.7.PXPXPXPXPXLXu.}.PXLXPXPXPXPX~ i K MXPXPXPXH.u T.LXPX Xo $ @ @ IXIX",
"IXIXIX@ #   j.PXDXDXPX[ b PXPXPXPXPXPXPXPX8.5.PXPXPXPXPXPX`.<.VXPXPXPXPXLXu.uXPXPXPXPXPXPXP / G F.PXPXMXG / LXDXPXj.. $ @ IXIXIX",
"IXIXIX@ $ o : DXDXGXPX] N PXHXLXPXPXPXPXKX1.r.PXPXPXPXPXPXVX<._.PXPXPXPXLXu.uXPXPXPXPXPXPXL F.) H PXPX/ G MXLXDXDX; O # @ IXIXIX",
"IXIXIX@ @ # +  XPXDXPXV V PXPXPXPXPXPXPXeX<.eXPXPXPXPXPXPXPX9.6.PXPXPXPXLXu.uXPXLXPXPXPXPXL F.>Xi nX>Xu Y.LXFXPX XO # # @ IXIXIX",
"IXIXIXIX@ $ o 5 PXlXPXN [ PXPXPXPXPXPXPX].1.KXPXPXPXPXPXPXPXe.6.PXPXPXPXLXu.uXPXPXPXPXPXPXL ' PXp G.^ K PXLXlXPX5 X $ @ IXIXIXIX",
"IXIXIXIX@ @ @ @ +XLXKXB ] PXPXPXPXPXPXPX].<.KXPXPXPXPXPXKXPXe.6.PXPXPXPXLXu.uXPXPXPXPXPXPXL _ PX^ J G G.PXDXPX+X# @ # @ IXIXIXIX",
"IXIXIXIX@ @ $ o 8 PXKXN F PXPXPXPXLXPXPX].<.tXPXPXPXPXPXPXPXq.6.PXPXPXPXLXu.uXPXLXPXPXPXPXL _ PXJ.i G 4XLXDXPX8 X $ @ @ IXIXIXIX",
"IXIXIXIXIX@ @ @ + .XPXZ c bXPXDXPXHXPXPXKX2.9.PXPXPXPXKXPXVX<.r.PXPXPXPXLXu.uXPXPXPXPXPXPXL ` PX4Xi ! LXDXPX.X+ @ # @ IXIXIXIXIX",
"IXIXIXIXIX@ @ $ o : KX:Xz M 6XPXPXPXPXD.=X'.<.w.PXPXPXPXPX9.2.KXPXPXPXPXLXu.uXPXLXPXPXPXPXL ` PXPXJ / LXDXLX: o $ @ @ IXIXIXIXIX",
"IXIXIXIXIXIX@ @ $   j.PX*Xv z ] ] [ D k A.PX`.<.6.r.e.r.6.<.`.aX|.uXuXuX|.y.|.PXPXPXPXPXPXL ` PXPXL ` LXPXj.X $ @ @ IXIXIXIXIXIX",
"IXIXIXIXIXIXIX@ # # o v.PXvXF M B B M [ PXPXPXeX7.5.6.5.7.rXPXf.y.u.u.u.u.u.t.f.|.SXPXPXPXL ` LXLX3X5XPXv.o $ @ @ IXIXIXIXIXIXIX",
"IXIXIXIXIXIXIX@ @ # @ # oXPXCXPXPXPXPXPXPXPXPXPXPXPXPXPXPXPXPXLXLXLXLXLXLXaX}.p.t.}.PXPXPXL ` PXFXGXPXXX@ @ # @ @ IXIXIXIXIXIXIX",
"IXIXIXIXIXIXIXIX@ @ $ + & OXPXvXDXPXPXPXPXPXPXPXPXPXPXPXPXPXPXPXPXPXPXPXPXPXPXGXLXLXPXPXPX4XkXPXlXPXOX& + $ @ @ IXIXIXIXIXIXIXIX",
"IXIXIXIXIXIXIXIXIX@ @ $ O % XXPXDXDXLXPXPXPXPXPXPXPXPXPXPXPXPXPXPXPXPXPXPXPXPXPXPXPXPXPXPXLXLXlXPXXX& + $ @ @ IXIXIXIXIXIXIXIXIX",
"IXIXIXIXIXIXIXIXIXIX@ @ $ + @ c.PXDXDXLXDXPXFXPXPXPXPXPXPXPXPXPXPXPXPXPXPXPXPXPXPXPXPXLXLXDXDXPXc.@ + # @ @ IXIXIXIXIXIXIXIXIXIX",
"IXIXIXIXIXIXIXIXIXIXIX@ @ $ @ o h.lXPXDXDXLXLXLXFXPXPXPXPXPXPXPXPXPXPXPXPXPXPXPXPXGXFXDXDXPXDXh.X @ $ @ # IXIXIXIXIXIXIXIXIXIXIX",
"IXIXIXIXIXIXIXIXIXIXIXIX@ @ @ #   - b.PXPXDXDXJXPXLXPXPXPXPXPXPXPXPXPXPXPXPXHXPXLXDXDXPXPXb.- . # # @ @ IXIXIXIXIXIXIXIXIXIXIXIX",
"IXIXIXIXIXIXIXIXIXIXIXIXIX@ @ # $ o o 2 .XPXPXPXDXDXDXJXLXFXLXLXDXPXGXLXDXJXDXDXDXPXLX.X1 o o $ # @ @ IXIXIXIXIXIXIXIXIXIXIXIXIX",
"IXIXIXIXIXIXIXIXIXIXIXIXIXIX@ @ @ $ $ o o , x.hXPXPXPXGXGXDXDXDXDXDXDXDXLXPXPXPXhXx., + o $ # @ @ @ IXIXIXIXIXIXIXIXIXIXIXIXIXIX",
"IXIXIXIXIXIXIXIXIXIXIXIXIXIXIXIX@ @ @ $ $ o o * 3 l.XXhXLXPXPXPXPXPXPXLXhXXXl.3 & . o $ # # @ @ IXIXIXIXIXIXIXIXIXIXIXIXIXIXIXIX",
"IXIXIXIXIXIXIXIXIXIXIXIXIXIXIXIXIXIX@ @ # $ $ + X   O * : 2 3 3 4 3 < : * +   X @ $ $ # @ @ IXIXIXIXIXIXIXIXIXIXIXIXIXIXIXIXIXIX",
"IXIXIXIXIXIXIXIXIXIXIXIXIXIXIXIXIXIXIXIX@ @ @ # $ $ @ @ o o X o o o X o + # $ # @ @ @ @ IXIXIXIXIXIXIXIXIXIXIXIXIXIXIXIXIXIXIXIX",
"IXIXIXIXIXIXIXIXIXIXIXIXIXIXIXIXIXIXIXIXIXIX@ @ @ @ @ $ # $ $ $ $ $ $ # $ # @ @ @ @ IXIXIXIXIXIXIXIXIXIXIXIXIXIXIXIXIXIXIXIXIXIX",
"IXIXIXIXIXIXIXIXIXIXIXIXIXIXIXIXIXIXIXIXIXIXIXIXIXIX@ @ @ @ @ @ @ @ @ @ @ @ IXIXIXIXIXIXIXIXIXIXIXIXIXIXIXIXIXIXIXIXIXIXIXIXIXIX",
"IXIXIXIXIXIXIXIXIXIXIXIXIXIXIXIXIXIXIXIXIXIXIXIXIXIXIXIXIXIXIXIXIXIXIXIXIXIXIXIXIXIXIXIXIXIXIXIXIXIXIXIXIXIXIXIXIXIXIXIXIXIXIXIX",
"IXIXIXIXIXIXIXIXIXIXIXIXIXIXIXIXIXIXIXIXIXIXIXIXIXIXIXIXIXIXIXIXIXIXIXIXIXIXIXIXIXIXIXIXIXIXIXIXIXIXIXIXIXIXIXIXIXIXIXIXIXIXIXIX"
};
