/* XPM */
static char *_bf3c08efb7b47ba8be74f5597fe0e50[] = {
/* columns rows colors chars-per-pixel */
"32 32 171 2 ",
"   c #201F1E",
".  c #1D211D",
"X  c #20211F",
"o  c #232422",
"O  c #272827",
"+  c #282927",
"@  c #2A2B2A",
"#  c #2F302F",
"$  c #30312F",
"%  c #323332",
"&  c #3B3C3B",
"*  c #40423F",
"=  c #434342",
"-  c #4B4B4A",
";  c #4C504B",
":  c #535353",
">  c #575358",
",  c #5A5B5A",
"<  c #605E5D",
"1  c #5F605F",
"2  c #5F6161",
"3  c #626362",
"4  c #6F706E",
"5  c #6F7D7C",
"6  c #F9575A",
"7  c #FD5A5D",
"8  c #FC6064",
"9  c #FE6A6C",
"0  c #F96D70",
"q  c #FC7173",
"w  c #FC777A",
"e  c #59FF49",
"r  c #6BFF59",
"t  c #70FF5F",
"y  c #FD8615",
"u  c #FBFB1E",
"i  c #FBFB30",
"p  c #FB9C41",
"a  c #FCA252",
"s  c #FDAA5C",
"d  c #FEAD61",
"f  c #F7B271",
"g  c #86FF77",
"h  c #89FF7E",
"j  c #FFFF40",
"k  c #FEFE4E",
"l  c #FDFD62",
"z  c #FCFD68",
"x  c #FEFE70",
"c  c #FFFF7B",
"v  c #4C4CFF",
"b  c #5353FE",
"n  c #6A6BFF",
"m  c #7879FF",
"M  c #FD44FF",
"N  c #FB4BFF",
"B  c #FE56FF",
"V  c #FC5AFF",
"C  c #FB6BFF",
"Z  c #FC72FE",
"A  c #FC7FFF",
"S  c #50FFFF",
"D  c #62FFFE",
"F  c #6DFEFF",
"G  c #7DFEFE",
"H  c #818281",
"J  c #8D8E8B",
"K  c #959595",
"L  c #9C9A98",
"P  c #AD9CAF",
"I  c #A7A8A6",
"U  c #A7A8A8",
"Y  c #A7A8B1",
"T  c #F98386",
"R  c #FDB6B8",
"E  c #FEBBBC",
"W  c #8EFA82",
"Q  c #9AFA8E",
"!  c #9CFC94",
"~  c #A5FC9C",
"^  c #ACFEA3",
"/  c #B6FEAE",
"(  c #B9FBB2",
")  c #FCC48E",
"_  c #FEC793",
"`  c #FEC894",
"'  c #FDCB9C",
"]  c #FDFD81",
"[  c #FEFE8B",
"{  c #FEFE9B",
"}  c #FECFA2",
"|  c #FED0A4",
" . c #FDD3AA",
".. c #C4FDBD",
"X. c #F5F5A6",
"o. c #FBFBA5",
"O. c #FFFFAB",
"+. c #FFFFB3",
"@. c #FFFFBA",
"#. c #8585FD",
"$. c #8D8DFC",
"%. c #9595FF",
"&. c #A4A4FF",
"*. c #ABABFD",
"=. c #BBBBFE",
"-. c #FB8FFE",
";. c #EC9EFF",
":. c #FC96FE",
">. c #FD99FF",
",. c #FEA7FF",
"<. c #FDA9FF",
"1. c #FFB7FE",
"2. c #FDB9FF",
"3. c #84FDFF",
"4. c #8CFEFF",
"5. c #92FEFF",
"6. c #9FFEFF",
"7. c #A5FDFB",
"8. c #BFFFFF",
"9. c #C0C1C0",
"0. c #CACDCA",
"q. c #CCD1D4",
"w. c #D0D1D1",
"e. c #D3DAD3",
"r. c #D7D9D9",
"t. c #FEDFC1",
"y. c #E7DBDC",
"u. c #FDD0D0",
"i. c #FEDCDC",
"p. c #D5E4D0",
"a. c #FDE0C3",
"s. c #FEFEC5",
"d. c #FEFECA",
"f. c #E4E5D9",
"g. c #FEEDDD",
"h. c #FFFED4",
"j. c #FFFFDC",
"k. c #D3D3FF",
"l. c #DCDCFF",
"z. c #F0DFEE",
"x. c #FEDCFF",
"c. c #DAE4EC",
"v. c #C6FEFF",
"b. c #CCFFFF",
"n. c #DAFCFF",
"m. c #E4E4E4",
"M. c #EBECEC",
"N. c #F2EEE7",
"B. c #FFEDEB",
"V. c #EFFEED",
"C. c #FEF2E4",
"Z. c #FCFDE2",
"A. c #F7F1EB",
"S. c #FCFCEB",
"D. c #E5E5FF",
"F. c #FEE5FF",
"G. c #F1EFFD",
"H. c #FEEBFF",
"J. c #EFF0F0",
"K. c #EDF5FB",
"L. c #E7FDFD",
"P. c #E9FDFF",
"I. c #F3F4F4",
"U. c #FDF5F5",
"Y. c #F7FDF4",
"T. c #FBFCF6",
"R. c #F2F3FC",
"E. c #FCF2FD",
"W. c #F4FFFF",
"Q. c #FEFEFE",
"!. c None",
/* pixels */
"!.!.!.!.!.!.!.!.!.!.!.!.!.!.!.!.!.!.!.!.!.!.!.!.!.!.!.!.!.!.!.!.",
"!.!.!.!.!.!.!.!.!.!.!.!.# + o o o o + % !.!.!.!.!.!.!.!.!.!.!.!.",
"!.!.!.!.!.!.!.!.!.% + . + = , 3 3 , = @   o % !.!.!.!.!.!.!.!.!.",
"!.!.!.!.!.!.!.% + o - K w.I.Q.Q.Q.Q.J.w.K - o + % !.!.!.!.!.!.!.",
"!.!.!.!.!.!.% o & U I.Q.Q.Q.Q.Q.Q.Q.Q.Q.Q.I.U & o % !.!.!.!.!.!.",
"!.!.!.!.!.% o , y.Q.Q.Q.Q.Q.Q.Q.Q.Q.Q.Q.T.T.Q.m.1 o % !.!.!.!.!.",
"!.!.!.!.% o 5 T 7 6 w B.Q.=.Q.Q.Q.Q.Q.=.&.s.X.Q.T.4 X % !.!.!.!.",
"!.!.!.% o , Q.q i.E.R B.K.n Q.Q.Q.Q.Q.*.%.O.z Q.T.R.3 o % !.!.!.",
"!.!.!.@ & m.Q.0 E U.Q.Q.G.n Q.Q.Q.Q.Q.*.%.@.u T.Q.Z.f.& + !.!.!.",
"!.!.% o U Q.Q.9 6 q 8 9 z.n Q.Q.Q.Q.Q.*.%.s.i { Q.z j.Y X % !.!.",
"!.!.o - I.T.Q.q i.Q.Q.U.G.n Q.Q.Q.Q.Q.*.%.+.c x Q.z Z.R.- o !.!.",
"!.!.o K Q.I.Q.q i.Q.Q.Q.G.n Q.Q.Q.R.Q.$.&.O.o.] d.c S.Q.K o !.!.",
"!.# @ w.Q.Q.Q.q i.Q.Q.Q.Q.b D.Q.Q.Q.Q.b l.+.{ +.[ c S.Q.w.+ # !.",
"!.+ = J.Q.Q.Q.q i.Q.Q.Q.Q.&.v D.k.=.b #.Q.d.[ Q.j l Q.Q.I.= + !.",
"!.o , Q.U.Q.Q.u.U.Q.Q.Q.Q.Q.*.b n m =.Q.Q.s.c Q.c k Q.Q.Q., o !.",
"!.o 3 Q.T.Q.Q.Q.Q.Q.Q.Q.Q.Q.Q.Q.Q.Q.Q.Q.Q.S.h.Q.Z.O.Q.T.Q.3 o !.",
"!.o 3 Q.T.Q.Q.Y.Q.Q.Q.Q.H.H.Q.P.v.n.P.Q.Q.Q.Q.Q.Q.Q.Q.Q.Q.1 X !.",
"!.o , Q.T.Q.^ t Q.Q.Q.2.N N ,.b.3.3.S D G v.C.C.Q.Q.Q.Q.Q., o !.",
"!.+ = M.Q.V.e V.Q.Q.H.M F.E.M F.Q.Q.6.5.L.W._ s Q.Q.| a.K.* @ !.",
"!.# + 0.Q.( h Q.Q.Q.,.A Q.Q.>.A Q.Q.4.v.Q.Q.| y g.Q.p C.q.+ $ !.",
"!.!.o J Q.^ ~ Q.T.Q.Z 2.Q.Q.H.V Q.Q.4.b.Q.Q. .s ' ) ) Q.J o !.!.",
"!.!.+ * E.! / Q.Q.Q.Z x.Q.Q.Q.C R.Q.4.b.Q.Q.` } s a T.I.= + !.!.",
"!.!.% . P ^ W Q.T.Q.Z <.Q.Q.F.B Q.Q.5.b.Q.Q._ t.d f Q.L o % !.!.",
"!.!.!.@ % e.r W ..g p.M :.2.B ;.v.n.F v.Q.Q._ t.}  .c.% + !.!.!.",
"!.!.!.% o > I.~ Q ^ Y.F.-.-.1.n.4.5.3.D 7.Q.'  .Q.N.: o % !.!.!.",
"!.!.!.!.% o 2 E.Q.Q.Q.Q.Q.Q.Q.Q.Q.Q.Q.W.P.Q.A.U.J.2 o % !.!.!.!.",
"!.!.!.!.!.% o ; e.Q.Q.R.E.Q.Q.Q.Q.Q.Q.Q.Q.T.Q.r.: o % !.!.!.!.!.",
"!.!.!.!.!.!.% o # K M.Q.Q.Q.Q.T.Q.T.Q.Q.Q.M.K % O # !.!.!.!.!.!.",
"!.!.!.!.!.!.!.!.# X & H 9.m.I.Q.T.R.m.9.H & X @ !.!.!.!.!.!.!.!.",
"!.!.!.!.!.!.!.!.!.% + o o & - : : - % o o @ % !.!.!.!.!.!.!.!.!.",
"!.!.!.!.!.!.!.!.!.!.!.!.# @ + o o + @ % !.!.!.!.!.!.!.!.!.!.!.!.",
"!.!.!.!.!.!.!.!.!.!.!.!.!.!.!.!.!.!.!.!.!.!.!.!.!.!.!.!.!.!.!.!."
};
